<?xml version="1.0" encoding="utf-8"?>
<svg viewBox="5.4083 62.4652 488.0633 370.4939" xmlns="http://www.w3.org/2000/svg">
  <g transform="matrix(8.780675888061523, 0, 0, 8.780675888061523, -31.540764324974475, -33.27055408463707)" style="">
    <path d="M59.14 19.17a3.614 3.614 0 0 0-2.917-1.458H15.56l-1.121-3.766a4.286 4.286 0 0 0-4.082-3.043H5.208a1 1 0 0 0 0 2h5.148a2.273 2.273 0 0 1 2.165 1.614l9.259 31.11a4.284 4.284 0 1 0 7.032 4.175H45.74a4.294 4.294 0 1 0 0-2H28.812a4.294 4.294 0 0 0-4.166-3.294 4.246 4.246 0 0 0-1.066.15l-.855-2.872h26.757a5.216 5.216 0 0 0 5.037-3.574l5.114-16.06a3.306 3.306 0 0 0-.492-2.982zm-9.235 27.338a2.294 2.294 0 1 1-2.295 2.294 2.297 2.297 0 0 1 2.295-2.294zM26.94 48.802a2.295 2.295 0 1 1-2.295-2.294 2.297 2.297 0 0 1 2.295 2.294zm30.787-27.257-5.114 16.061a3.267 3.267 0 0 1-3.132 2.18H22.13l-5.976-20.074h40.07a1.587 1.587 0 0 1 1.302.638 1.316 1.316 0 0 1 .202 1.195z" data-name="Shopping Cart" fill="#000000" data-original="#000000"/>
  </g>
</svg>