<?xml version="1.0" encoding="UTF-8"?>
<svg xmlns="http://www.w3.org/2000/svg" xmlns:xlink="http://www.w3.org/1999/xlink" width="842pt" height="596pt" viewBox="0 0 842 596" version="1.1">
<g id="surface1">
<path style=" stroke:none;fill-rule:evenodd;fill:rgb(8.616638%,63.476563%,70.117188%);fill-opacity:1;" d="M 97.347656 294.203125 L 97.347656 302.453125 L 97.582031 303.261719 C 97.625 303.476563 97.65625 303.851563 97.675781 304.085938 L 98.265625 308.308594 C 98.621094 310.210938 99.003906 311.875 99.53125 313.703125 C 102.253906 323.136719 107.8125 332.410156 114.476563 338.453125 C 151.148438 371.726563 204.34375 343.65625 204.21875 298.671875 C 204.136719 269.355469 181.527344 245.40625 153.105469 244.1875 C 144.804688 243.828125 137.480469 245.410156 130.640625 248.203125 C 127.488281 249.488281 124.539063 251.132813 121.949219 252.824219 C 120.460938 253.792969 119.386719 254.613281 118.09375 255.621094 C 112.21875 260.191406 107.117188 266.269531 103.289063 273.636719 C 101.796875 276.515625 100.519531 279.78125 99.527344 283.175781 C 98.460938 286.820313 98.078125 289.128906 97.667969 292.757813 C 97.636719 293.039063 97.601563 293.324219 97.542969 293.601563 C 97.523438 293.675781 97.570313 294.460938 97.417969 294.007813 C 97.40625 293.976563 97.378906 294.140625 97.347656 294.203125 Z M 185.921875 271.851563 C 184.050781 271.425781 181.886719 273.417969 179.976563 274.820313 L 164.300781 286.453125 C 157.332031 291.667969 150.558594 296.757813 143.679688 302.089844 C 138.976563 305.734375 136.761719 303.101563 131.660156 299.699219 C 128.039063 297.285156 124.421875 294.925781 120.824219 292.410156 C 119.375 291.394531 117.074219 289.476563 114.785156 289.488281 C 111.726563 289.496094 111.070313 292.632813 112.421875 295.074219 L 127.390625 316.59375 C 129.023438 318.777344 133.839844 324.988281 135.566406 326.542969 C 137.121094 327.9375 139.878906 328.851563 142.621094 328.105469 C 145.757813 327.253906 147.664063 324.429688 149.898438 321.84375 C 150.609375 321.019531 151.269531 320.148438 151.96875 319.324219 C 153.367188 317.679688 154.585938 316.023438 156.0625 314.238281 C 157.449219 312.558594 158.679688 310.890625 159.992188 309.21875 L 167.828125 298.925781 C 173.53125 291.339844 179.8125 282.929688 185.136719 275.152344 C 185.902344 274.035156 186.597656 273.4375 185.921875 271.851563 "/>
<path style=" stroke:none;fill-rule:evenodd;fill:rgb(10.984802%,10.984802%,10.205078%);fill-opacity:1;" d="M 356.757813 243.757813 C 334.828125 245.199219 335.398438 264.585938 335.398438 281.234375 C 335.398438 287.8125 335.398438 294.390625 335.398438 300.96875 C 335.398438 311.59375 334.386719 328.875 337.347656 338.199219 C 340.753906 348.9375 348.148438 353.796875 361.953125 352.921875 C 374.300781 352.136719 380.003906 345.410156 382.183594 334.011719 C 383.65625 326.277344 383.136719 304.753906 383.136719 295.691406 C 383.136719 284.667969 384.160156 268.230469 381.128906 258.394531 C 377.875 247.84375 370.097656 242.882813 356.757813 243.757813 Z M 297.179688 304.546875 C 298.519531 304.09375 306.039063 303.78125 307.332031 304.640625 C 308.042969 305.421875 307.707031 342.046875 307.6875 348.007813 C 307.671875 353.210938 308.648438 352.234375 318.359375 352.234375 C 326.441406 352.234375 326.171875 353.402344 326.171875 345.253906 L 326.171875 249.796875 C 326.175781 247.355469 326.644531 244.902344 324.089844 244.515625 C 322.730469 244.308594 310.628906 244.3125 309.453125 244.5625 C 307.160156 245.054688 307.6875 247.890625 307.691406 250.253906 C 307.691406 254.769531 307.921875 282.429688 307.671875 285.035156 C 307.574219 286.039063 307.589844 285.894531 307.085938 286.304688 C 306.011719 286.96875 298.484375 286.746094 297.242188 286.285156 C 296.5 284.089844 296.921875 256.621094 296.921875 250.027344 C 296.925781 247.9375 297.433594 245.0625 295.132813 244.5625 C 294.0625 244.328125 281.726563 244.320313 280.496094 244.523438 C 277.957031 244.945313 278.429688 247.332031 278.429688 249.796875 L 278.429688 345.023438 C 278.429688 353.824219 276.839844 352.230469 293.34375 352.238281 C 296.449219 352.242188 296.914063 351.507813 296.925781 348.476563 C 296.949219 342.519531 296.550781 307.253906 297.179688 304.546875 Z M 550.347656 244.648438 C 548.21875 245.390625 548.78125 248.335938 548.78125 250.714844 L 548.78125 304.867188 C 548.78125 323.71875 546.171875 346.570313 563.542969 351.835938 C 571.300781 354.1875 581.730469 353.449219 588.339844 348.324219 C 594.417969 343.613281 596.160156 333.160156 596.457031 325.523438 C 596.84375 315.429688 596.515625 304.703125 596.515625 294.542969 L 596.519531 248.1875 C 596.511719 243.324219 594.339844 244.445313 584.808594 244.445313 C 577.238281 244.445313 578.039063 243.75 578.039063 253.007813 L 578.039063 314.734375 C 578.039063 319.421875 578.378906 325.6875 577.757813 330.195313 C 576.746094 337.523438 570.472656 335.648438 568.984375 334.003906 C 566.652344 331.429688 567.265625 324.214844 567.265625 320.242188 L 567.265625 250.714844 C 567.265625 248.351563 567.8125 245.171875 565.675781 244.605469 C 564.464844 244.285156 551.328125 244.308594 550.347656 244.648438 Z M 393.992188 244.613281 C 391.679688 245.261719 392.363281 248.867188 392.363281 252.550781 L 392.363281 339.746094 C 392.363281 353.5625 391.230469 352.234375 399.371094 352.234375 C 411.984375 352.234375 410.847656 353.613281 410.847656 344.105469 L 410.84375 319.78125 C 410.839844 314.035156 412.238281 317.46875 421.203125 315.6875 C 440.640625 311.824219 440.085938 292.546875 440.097656 276.183594 C 440.105469 255.4375 432.683594 244.5 413.371094 244.445313 C 410.160156 244.4375 395.949219 244.0625 393.992188 244.613281 Z M 469.515625 243.6875 C 450.433594 245.53125 449.328125 261.722656 449.328125 280.316406 C 449.328125 289.800781 449.328125 299.285156 449.328125 308.769531 C 449.328125 323.191406 446.980469 346.101563 463.285156 351.566406 C 470.609375 354.023438 480.949219 353.550781 486.914063 349.71875 C 492.542969 346.105469 495.453125 340.023438 496.574219 330.949219 C 496.960938 327.839844 497.449219 320.304688 496.996094 317.367188 C 496.617188 314.914063 494.449219 315.265625 492.089844 315.269531 C 476.644531 315.289063 478.617188 314.113281 478.585938 322.765625 C 478.570313 326.722656 478.90625 332.800781 476.1875 334.632813 C 474.203125 335.972656 468.960938 336.710938 468.070313 330.03125 C 467.472656 325.53125 467.808594 282.628906 467.8125 273.433594 C 467.8125 269.488281 467.496094 263.441406 470.328125 261.773438 C 472.824219 260.300781 477.433594 260.335938 478.296875 266.335938 C 478.71875 269.269531 478.222656 278.464844 478.816406 280.042969 C 479.507813 281.875 482.503906 281.402344 484.515625 281.402344 C 486.886719 281.402344 489.261719 281.402344 491.632813 281.402344 C 497.601563 281.40625 497.199219 281.605469 497.046875 272.742188 C 496.71875 253.609375 490.128906 241.691406 469.515625 243.6875 Z M 244.777344 243.769531 C 235.289063 244.507813 229.410156 249.023438 226.335938 255.773438 C 223.09375 262.890625 223.125 274.382813 225.894531 281.894531 C 230.703125 294.9375 245.335938 306.734375 251.003906 317.59375 C 253.53125 322.4375 254.5625 333.421875 249.703125 335.117188 C 247.253906 335.976563 245.183594 335.171875 243.984375 333.792969 C 241.128906 330.515625 243.535156 322.828125 240.929688 321.691406 C 239.96875 321.273438 227.324219 321.230469 226.019531 321.558594 C 223.765625 322.117188 223.867188 324.566406 223.964844 327.125 C 224.550781 342.679688 233.035156 354.496094 251.1875 352.886719 C 260.464844 352.0625 266.324219 347.273438 269.21875 340.636719 C 272.320313 333.523438 272.320313 322.128906 269.5625 314.648438 C 264.714844 301.484375 250.226563 289.855469 244.441406 278.953125 C 242.410156 275.121094 241.902344 271.078125 242.679688 266.132813 C 243.726563 259.480469 249.832031 260.8125 251.410156 262.8125 C 252.53125 264.226563 252.964844 266.421875 253.105469 268.609375 C 253.253906 270.859375 252.699219 274.222656 254.410156 274.949219 C 255.453125 275.394531 267.910156 275.46875 269.367188 275.136719 C 272.902344 274.328125 271.273438 265.671875 270.726563 262.988281 C 268.1875 250.523438 259.410156 242.632813 244.777344 243.769531 Z M 672.816406 243.78125 C 663.203125 244.570313 657.613281 249.117188 654.457031 255.875 C 651.269531 262.695313 651.347656 274.601563 654.011719 281.796875 C 658.859375 294.882813 674.027344 307.441406 679.089844 317.53125 C 681.1875 321.71875 681.6875 324.976563 680.964844 330.3125 C 680.015625 337.285156 673.8125 335.796875 672.285156 333.972656 C 669.351563 330.46875 671.492188 322.882813 669.324219 321.789063 C 668.316406 321.277344 656.0625 321.203125 654.433594 321.496094 C 650.652344 322.175781 652.300781 330.738281 652.832031 333.472656 C 653.648438 337.660156 655.160156 341.378906 657.234375 344.203125 C 661.425781 349.902344 668.464844 353.660156 678.851563 352.925781 C 688.046875 352.269531 694.265625 347.570313 697.207031 341.066406 C 700.484375 333.824219 700.507813 322.621094 697.796875 314.890625 C 693.21875 301.851563 678.628906 290.132813 672.722656 279.148438 C 670.617188 275.238281 670.035156 271.367188 670.824219 266.242188 C 671.867188 259.480469 677.75 260.808594 679.496094 262.746094 C 682.503906 266.085938 680.152344 273.613281 682.492188 274.898438 C 683.476563 275.4375 695.785156 275.480469 697.398438 275.167969 C 699.835938 274.699219 699.730469 272.105469 699.648438 269.761719 C 699.433594 263.457031 697.96875 257.039063 694.363281 252.238281 C 690.167969 246.640625 682.886719 242.953125 672.816406 243.78125 Z M 605.746094 248.191406 L 605.746094 348.464844 C 605.746094 351.378906 606.117188 352.234375 609.136719 352.234375 L 641.726563 352.234375 C 644.753906 352.234375 645.175781 351.375 645.175781 348.464844 L 645.175781 338.371094 C 645.175781 333.730469 643.160156 334.671875 636.445313 334.671875 C 633.835938 334.671875 626.277344 335.085938 624.496094 334.285156 L 624.175781 331.722656 C 624.015625 329.085938 624.148438 308.238281 624.429688 304.578125 C 626.679688 303.59375 638.628906 304.46875 642.648438 304.171875 C 644.933594 304.003906 645.175781 302.695313 645.175781 300.507813 L 645.175781 290.183594 C 645.175781 287.8125 644.839844 286.789063 642.429688 286.644531 L 627.027344 286.636719 C 624.621094 286.636719 624.230469 286.703125 624.230469 283.527344 C 624.230469 277.570313 623.988281 267.929688 624.441406 262.386719 C 626.773438 261.4375 638.644531 262.277344 642.652344 261.984375 C 644.972656 261.8125 645.175781 260.492188 645.175781 258.285156 L 645.175781 248.191406 C 645.175781 245.109375 644.621094 244.445313 641.496094 244.445313 L 609.394531 244.445313 C 606.296875 244.445313 605.746094 245.171875 605.746094 248.191406 Z M 525.070313 334.320313 C 524.40625 331.886719 524.769531 303.15625 524.769531 298.214844 L 524.769531 252.78125 C 524.769531 243.363281 526.207031 244.445313 514.582031 244.445313 C 512.171875 244.445313 507.511719 243.734375 506.59375 245.707031 C 505.949219 247.097656 506.296875 331.667969 506.296875 345.941406 C 506.296875 354.050781 504.953125 352.234375 527.433594 352.234375 C 530.492188 352.234375 533.554688 352.234375 536.613281 352.234375 C 538.972656 352.234375 543.800781 352.957031 544.648438 351 C 545.152344 349.847656 544.945313 343.777344 544.945313 342.039063 C 544.945313 339.210938 545.714844 335.292969 542.996094 334.773438 C 538.722656 333.953125 528.519531 335.542969 525.070313 334.320313 Z M 357.824219 261.40625 C 354.824219 262.105469 354.230469 264.796875 354 268.183594 C 353.558594 274.714844 353.878906 292.835938 353.878906 300.050781 C 353.878906 307.085938 353.878906 314.121094 353.878906 321.160156 C 353.878906 327.03125 352.832031 337.320313 360.914063 335.246094 C 365.816406 333.988281 364.648438 323.410156 364.648438 317.949219 L 364.648438 275.496094 C 364.648438 269.761719 365.71875 259.574219 357.824219 261.40625 Z M 410.847656 264.480469 L 410.847656 296.605469 C 410.847656 297.71875 410.695313 298.46875 411.285156 299.167969 C 412.425781 299.976563 415.238281 299.644531 416.605469 299.164063 C 418.460938 298.515625 419.226563 297.65625 420.023438 296.144531 C 422.167969 292.085938 421.613281 281.378906 421.613281 275.953125 C 421.613281 270.160156 421.734375 261.957031 414.964844 261.289063 C 411.1875 260.917969 410.847656 261.046875 410.847656 264.480469 "/>
<path style=" stroke:none;fill-rule:evenodd;fill:rgb(10.984802%,10.984802%,10.205078%);fill-opacity:1;" d="M 744.542969 304.105469 L 744.542969 299.648438 C 744.15625 298.882813 744.058594 297.714844 743.703125 296.761719 C 738.835938 283.714844 713.574219 284.746094 713.316406 301.648438 C 713.09375 316.203125 730.886719 318.613281 739.183594 312.816406 C 743.664063 309.683594 743.585938 305.960938 744.542969 304.105469 Z M 737.480469 261.5 C 737.4375 261.535156 737.359375 261.527344 737.335938 261.601563 C 737.214844 261.972656 715.753906 269.503906 714.066406 270.410156 C 714.0625 276.621094 713.222656 275.664063 717.460938 275.660156 L 742.714844 275.671875 C 744.070313 275.53125 743.90625 275.390625 743.769531 271.679688 L 721.804688 271.613281 C 723.328125 270.679688 725.480469 270.125 727.253906 269.460938 C 729.160156 268.742188 730.902344 268.105469 732.785156 267.40625 C 734.105469 266.917969 743.421875 263.863281 743.652344 263.039063 L 743.789063 259.753906 L 722.234375 251.796875 L 743.632813 251.671875 L 743.792969 247.421875 L 714.15625 247.386719 C 714.003906 248.234375 713.992188 250.960938 714.054688 251.859375 C 714.164063 253.367188 715.429688 253.332031 716.847656 253.859375 C 719.613281 254.882813 736.386719 260.777344 737.480469 261.5 Z M 726.898438 291.929688 C 720.621094 292.632813 715.699219 296.550781 716.980469 303.773438 C 719.078125 315.589844 743.382813 314.691406 740.871094 299.828125 C 739.867188 293.875 733.703125 291.171875 726.898438 291.929688 Z M 744.542969 342.054688 L 744.542969 338.492188 C 744.054688 337.160156 744.039063 335.714844 743.34375 334.0625 C 741.691406 330.132813 737.78125 327.484375 733.226563 326.8125 L 733.324219 330.984375 C 738.324219 332.09375 742.03125 335.421875 740.808594 341.527344 C 739.835938 346.378906 735.3125 348.507813 729.632813 348.703125 C 717.664063 349.113281 714.828125 340.535156 717.8125 334.820313 C 718.835938 332.855469 720.675781 331.839844 723.484375 331.265625 L 723.511719 327.183594 C 717.816406 327.644531 714.273438 331.492188 713.460938 336.925781 C 711.394531 350.746094 724.359375 355.160156 735.207031 352.21875 C 743.578125 349.953125 743.625 344.0625 744.542969 342.054688 "/>
<path style=" stroke:none;fill-rule:evenodd;fill:rgb(10.984802%,10.984802%,10.205078%);fill-opacity:1;" d="M 701.589844 353.003906 L 707.09375 353.003906 L 707.148438 347.464844 L 701.574219 347.4375 L 701.589844 353.003906 "/>
</g>
</svg>
